<svg xmlns="http://www.w3.org/2000/svg" viewBox="0 0 2125.9 266.9"><title>Cyber Skyline Text Only Black</title><path d="M169.5,289.9a133.2,133.2,0,0,1-52.1-10.5A124.4,124.4,0,0,1,95,267.2a154.4,154.4,0,0,1-20.1-16.5,129.2,129.2,0,0,1-28.4-42.2,134.3,134.3,0,0,1,0-104.1A138.3,138.3,0,0,1,74.9,61.9a136.2,136.2,0,0,1,42.5-28.3,132.4,132.4,0,0,1,103.8,0,127.6,127.6,0,0,1,42.5,28.3l-39.5,39.9a73.2,73.2,0,0,0-24.9-17A78.7,78.7,0,0,0,169.5,79a75.8,75.8,0,0,0-30.2,6.1,79.7,79.7,0,0,0-41.2,41.2,77.3,77.3,0,0,0,0,60.2,79.2,79.2,0,0,0,16.7,24.7,78.1,78.1,0,0,0,24.5,16.6,74.1,74.1,0,0,0,30.2,6.1,76.8,76.8,0,0,0,29.8-5.8,74.4,74.4,0,0,0,24.9-16.9l39.5,39.5a127.3,127.3,0,0,1-42.5,28.7A132.4,132.4,0,0,1,169.5,289.9Z" transform="translate(-36 -23)"/><path d="M450.7,105.7h25.1l-78,111.2V284H358.6V216.9L280.9,105.7h47.7l49.6,70.8,49.6-70.8Z" transform="translate(-36 -23)"/><path d="M568.5,284H483.6V105.9h74.3a85.5,85.5,0,0,1,16.5,1.6,56.6,56.6,0,0,1,14.2,4.9A46.5,46.5,0,0,1,608,129c5.5,8.3,8.3,18.1,8.3,29.5s-2.3,19-6.9,26.5a49.4,49.4,0,0,1,15.1,18.3,54.9,54.9,0,0,1,5.2,23.7,56.9,56.9,0,0,1-4.9,23.3A52.1,52.1,0,0,1,611,269a56.8,56.8,0,0,1-19.2,11.2A70.7,70.7,0,0,1,568.5,284ZM522.9,171.2h38.9a25.3,25.3,0,0,0,4.2-.6,19.9,19.9,0,0,0,5.5-1.9,12.9,12.9,0,0,0,4.1-3.5c1-1.4,1.5-3.6,1.5-6.7a33.2,33.2,0,0,0-.4-4.1,8.2,8.2,0,0,0-2.1-4.4,12,12,0,0,0-5.6-3.5,35.3,35.3,0,0,0-11.1-1.4h-35Zm0,73.6h45.6l5-.5a24.8,24.8,0,0,0,7.4-2.2,18.5,18.5,0,0,0,6.7-5.3c1.9-2.4,2.8-5.6,2.8-9.8s-.5-5.6-1.6-7.2a10.8,10.8,0,0,0-3.4-3.6c-5.1-3.9-12.8-5.8-23.1-5.8H522.9Z" transform="translate(-36 -23)"/><path d="M684.3,144.9v26.5h72.2v39.2H684.3v34.2h74.8V284h-114V105.7h114v39.2Z" transform="translate(-36 -23)"/><path d="M921.5,284h-48l-32.8-46.8H820.4V284H781.2V105.7H847a97.3,97.3,0,0,1,27.8,3.8A69.3,69.3,0,0,1,897,120.7a72.6,72.6,0,0,1,9.6,9.6,49.5,49.5,0,0,1,7,11.1,63.9,63.9,0,0,1,6,27.5,71.4,71.4,0,0,1-5.1,26.8A61,61,0,0,1,900,217.3a60.3,60.3,0,0,1-16.8,12ZM820.4,198h26.8c10.9.3,19.4-2.6,25.4-8.6s7.8-12,7.8-20.5c0-16-11.1-24-33.4-24H820.4Z" transform="translate(-36 -23)"/><path d="M1131.4,287.3h-4.6a157,157,0,0,1-30.5-3.8,152.5,152.5,0,0,1-29.1-9.4,123.9,123.9,0,0,1-26.1-16.1,73.5,73.5,0,0,1-17.4-20.1l47.7-27.7a28.9,28.9,0,0,0,7.8,7.9,72.9,72.9,0,0,0,12.8,7.2,86.5,86.5,0,0,0,16.3,5.3,85.3,85.3,0,0,0,18.2,2h1.6a72,72,0,0,0,18.3-1.3,92.8,92.8,0,0,0,21.3-6.9c12-5.5,18.6-12.9,19.7-22.1a12.2,12.2,0,0,0-.6-6.1,14.6,14.6,0,0,0-2.7-3.8c-3.9-4.4-10-7.7-18.1-9.9-10.3-3.1-22.2-4.6-35.6-4.6-3.7,0-9-.2-16-.7a142.3,142.3,0,0,1-22.5-3.3q-30.7-7.2-48.1-24.7c-12.8-13.2-18.5-29.4-17.2-48.8v-.3a78.2,78.2,0,0,1,6.4-26,64.5,64.5,0,0,1,15.7-21.4q16.8-16.2,43.2-22.8a145.5,145.5,0,0,1,35.4-4.3,143.7,143.7,0,0,1,36.4,4.7c13.6,3.3,25.4,8.1,35.4,14.5s17.9,13.7,23.6,22l-46.8,29.7c-1.3-2-4.1-4.3-8.2-6.9s-10-4.9-17.5-6.6a99.4,99.4,0,0,0-22.7-2.8,76,76,0,0,0-21.5,2.5c-5.7,1.3-10.1,2.9-13.3,4.9a29,29,0,0,0-7.3,6.1,17.8,17.8,0,0,0-3.1,5.9,23.2,23.2,0,0,0-.6,4.1,13,13,0,0,0,.8,5.5,8.5,8.5,0,0,0,1.8,2.8c3.3,3.3,9.2,6,17.8,8.1a124.5,124.5,0,0,0,28.3,3.1q31.6,0,55.9,8.4t39,24.2a69,69,0,0,1,14.2,23.6,61.3,61.3,0,0,1,3,27.8,73.1,73.1,0,0,1-14.9,38.4c-8.5,11.3-20.3,20.6-35.2,27.9a146.6,146.6,0,0,1-61,13.8Z" transform="translate(-36 -23)"/><path d="M1367,181.8,1468,284h-55.1L1337,207.2l-21.7,18V284h-39.2V105.7h39.2V174l81-68.3h60.9Z" transform="translate(-36 -23)"/><path d="M1628.8,105.7h25.1L1576,216.9V284h-39.3V216.9L1459,105.7h47.8l49.6,70.8,49.5-70.8Z" transform="translate(-36 -23)"/><path d="M1661.8,284V105.7H1701V244.8h75.9V284Z" transform="translate(-36 -23)"/><path d="M1788.9,284V105.7h39.2V284Z" transform="translate(-36 -23)"/><path d="M2024.2,105.7V284h-42.3l-91.5-119.3V284h-39.2V105.7h43.3l90.4,117.9V105.7h39.3Z" transform="translate(-36 -23)"/><path d="M2087.1,144.9v26.5h72.2v39.2h-72.2v34.2h74.8V284h-114V105.7h114v39.2Z" transform="translate(-36 -23)"/></svg>